# xmcd
# Copyright (C) 1995-1998 Ti Kan
#
# Track frame offsets:
#       150
#       13857
#       25756
#       37096
#       55653
#       74158
#
# Disc length: 1220 seconds
#
# Revision: 0
# Processed by: cddbd v1.5.2PL0 Copyright (c) Steve Scherf et al.
# Submitted via: CD-Transfer v1.0
#
DISCID=5004c206
DTITLE=Saitenverhältnisse - A Guats Gfühl
DYEAR=14
DGENRE=
TTITLE0=35 Grad
TTITLE1=A Guats Gfuihl
TTITLE2=Zommghearn 
TTITLE3=Claudia
TTITLE4=Herbst
TTITLE5=Augen Schaugn
EXTD=
EXTT0=
EXTT1=
EXTT2=
EXTT3=
EXTT4=
EXTT5=
PLAYORDER=
